<svg xmlns="http://www.w3.org/2000/svg" viewBox="0 8 21 16" fill="#000000">
  <title>behance</title>
  <path d="M9.88 12.52c0-2.4-1.92-4.32-4.32-4.32H.84c-.48 0-.84.36-.84.84V23c0 .48.36.84.84.84h4.56c2.4 0 4.32-1.92 4.32-4.32 0-1.4-.68-2.64-1.72-3.44 1.12-.84 1.88-2.12 1.88-3.56zm-1.8 6.96c0 1.44-1.2 2.64-2.64 2.64H1.72v-5.28H5.4c1.48 0 2.68 1.2 2.68 2.64zm-2.6-4.32H1.72V9.88h3.64c.04 0 .08 0 .12 0h.08c1.44 0 2.64 1.2 2.64 2.64.04 1.44-1.16 2.64-2.64 2.64zm10.44-1.84c-2.88 0-5.24 2.36-5.24 5.24s2.36 5.24 5.24 5.24c1.52 0 3-.68 4-1.84.32-.36.24-.88-.08-1.2-.36-.32-.88-.24-1.2.08-.68.8-1.68 1.24-2.72 1.24-1.68 0-3.08-1.16-3.48-2.72h7.88c.48 0 .84-.36.84-.84 0-2.84-2.36-5.2-5.24-5.2zm0 1.68c1.68 0 3.08 1.16 3.48 2.72h-6.92c.32-1.56 1.72-2.72 3.44-2.72zm-2.64-2.48h5.32c.48 0 .84-.36.84-.84s-.36-.84-.84-.84h-5.32c-.48 0-.84.36-.84.84s.36.84.84.84z"/>
</svg>
