<?xml version="1.0" encoding="UTF-8"?>
<svg id="Layer_2" data-name="Layer 2" xmlns="http://www.w3.org/2000/svg" viewBox="0 0 59.67 59.67">
  <defs>
    <style>
      .cls-1 {
        fill: #dbd9dc;
      }
    </style>
  </defs>
  <g id="OBJECTS">
    <g>
      <rect class="cls-1" width="59.67" height="59.67" rx="11.21" ry="11.21"/>
      <g>
        <path d="M26.36,28.92c.99-.47,1.74-1.07,2.24-1.81.5-.74.75-1.66.75-2.77,0-1.02-.17-1.89-.5-2.58-.34-.7-.82-1.26-1.43-1.67-.62-.42-1.36-.72-2.22-.91-.87-.19-1.81-.28-2.86-.28h-10.35v21.96h10.64c.98,0,1.94-.12,2.87-.37.94-.25,1.77-.62,2.5-1.14.72-.51,1.31-1.17,1.74-1.99.43-.81.64-1.76.64-2.88,0-1.37-.33-2.55-.99-3.52-.66-.97-1.66-1.66-3.02-2.05ZM16.81,22.65h4.52c.43,0,.85.03,1.24.11.41.07.75.2,1.06.39.31.18.56.44.74.76.18.33.27.75.27,1.26,0,.92-.27,1.59-.83,2-.56.41-1.27.62-2.13.62h-4.89v-5.13ZM25.25,35.64c-.19.37-.46.66-.79.88-.32.22-.71.37-1.14.47-.43.1-.88.14-1.36.14h-5.16v-6.05h5.26c1.04,0,1.89.24,2.52.72.63.49.95,1.29.95,2.42,0,.58-.09,1.06-.29,1.42Z"/>
        <path d="M47.35,30.43c-.29-1.13-.75-2.14-1.4-3.02-.65-.88-1.47-1.59-2.48-2.11-1.01-.53-2.19-.79-3.53-.79-1.22,0-2.32.22-3.32.65-1,.43-1.85,1.02-2.58,1.77-.72.75-1.27,1.63-1.67,2.66-.39,1.03-.59,2.14-.59,3.33s.19,2.36.57,3.39c.38,1.03.92,1.91,1.61,2.65.71.74,1.56,1.31,2.57,1.71,1.01.4,2.14.6,3.39.6,1.8,0,3.34-.41,4.6-1.24,1.28-.82,2.22-2.19,2.84-4.1h-3.85c-.15.49-.53.97-1.17,1.41-.64.44-1.4.67-2.28.67-1.22,0-2.17-.32-2.82-.96-.66-.64-1.08-1.83-1.08-3.09h11.47c.08-1.23-.02-2.41-.3-3.54ZM36.18,31.21c.02-.31.09-.66.2-1.05.11-.4.3-.77.59-1.12.28-.35.65-.64,1.11-.88.46-.24,1.04-.36,1.74-.36,1.07,0,1.95.31,2.47.89.52.58.9,1.4,1.01,2.52h-7.11Z"/>
        <rect x="35.28" y="20.38" width="8.9" height="2.17"/>
      </g>
    </g>
  </g>
</svg>