<svg xmlns="http://www.w3.org/2000/svg" viewBox="0 7 18 18" fill="#000000">
  <title>instagram</title>
  <path d="M14.48 11.28c0 .48-.4.84-.84.84-.48 0-.84-.4-.84-.84 0-.48.4-.84.84-.84.44-.04.84.36.84.84zm3.28.36v8.72c0 2.48-2.04 4.52-4.52 4.52H4.52C2.04 24.88 0 22.84 0 20.36v-8.72C0 9.16 2.04 7.12 4.52 7.12h8.72c2.52 0 4.52 2.04 4.52 4.52zm-1.68 0c0-1.56-1.28-2.84-2.84-2.84H4.52c-1.56 0-2.84 1.28-2.84 2.84v8.72c0 1.56 1.28 2.84 2.84 2.84h8.72c1.6 0 2.88-1.28 2.88-2.84l-.04-8.72zM13.52 16c0-2.56-2.08-4.64-4.64-4.64S4.24 13.44 4.24 16s2.08 4.64 4.64 4.64 4.64-2.08 4.64-4.64zm-1.68 0c0 1.64-1.32 2.96-2.96 2.96S5.92 17.64 5.92 16s1.32-2.96 2.96-2.96 2.96 1.32 2.96 2.96z"/>
</svg>
